<?xml version="1.0" encoding="UTF-8"?>
<svg id="Layer_2" data-name="Layer 2" xmlns="http://www.w3.org/2000/svg" xmlns:xlink="http://www.w3.org/1999/xlink" viewBox="0 0 283.67 277.55">
  <defs>
    <style>
      .cls-1 {
        fill: #cc9b3c;
      }

      .cls-1, .cls-2, .cls-3, .cls-4, .cls-5, .cls-6, .cls-7, .cls-8, .cls-9, .cls-10, .cls-11, .cls-12, .cls-13, .cls-14, .cls-15, .cls-16, .cls-17, .cls-18, .cls-19, .cls-20, .cls-21, .cls-22, .cls-23, .cls-24, .cls-25, .cls-26, .cls-27, .cls-28, .cls-29, .cls-30, .cls-31, .cls-32 {
        stroke-width: 0px;
      }

      .cls-2 {
        fill: #7f6f71;
      }

      .cls-3 {
        fill: #4f2b16;
      }

      .cls-4 {
        fill: #5a5255;
      }

      .cls-5 {
        fill: #898686;
      }

      .cls-6 {
        fill: url(#linear-gradient);
      }

      .cls-7 {
        fill: #d5d4d2;
      }

      .cls-8 {
        fill: #6d6363;
      }

      .cls-9 {
        fill: #bfaea9;
      }

      .cls-10 {
        fill: #56521f;
      }

      .cls-11 {
        fill: #8f7f80;
      }

      .cls-12 {
        fill: #775212;
      }

      .cls-13 {
        fill: #062733;
      }

      .cls-14 {
        fill: #bab5b2;
      }

      .cls-15 {
        fill: #695f56;
      }

      .cls-16 {
        fill: #e0cecd;
      }

      .cls-17 {
        fill: #a89f97;
      }

      .cls-18 {
        fill: #593511;
      }

      .cls-19 {
        fill: #413e3b;
      }

      .cls-20 {
        fill: #967329;
      }

      .cls-21 {
        fill: #2d180c;
      }

      .cls-22 {
        fill: #fbfaf8;
      }

      .cls-23 {
        fill: #b1a0a9;
      }

      .cls-24 {
        fill: #d9c9be;
      }

      .cls-25 {
        fill: #262427;
      }

      .cls-26 {
        fill: #969390;
      }

      .cls-27 {
        fill: #6e4612;
      }

      .cls-28 {
        fill: #0b0a0a;
      }

      .cls-29 {
        fill: #b1892f;
      }

      .cls-30 {
        fill: #b7aeb2;
      }

      .cls-31 {
        fill: #787675;
      }

      .cls-32 {
        fill: #5f96c4;
      }
    </style>
    <linearGradient id="linear-gradient" x1="132.7" y1="43.67" x2="177.17" y2="53.31" gradientUnits="userSpaceOnUse">
      <stop offset="0" stop-color="#aeb0ad"/>
      <stop offset="1" stop-color="#424748"/>
    </linearGradient>
  </defs>
  <g id="Layer_1-2" data-name="Layer 1">
    <g>
      <g>
        <path class="cls-28" d="M265.54,184.5c1.98.1,1.42.48,1.5.5l.75,18c3.55.81,4.38-16.76.25-18,8.6,2.88,7.91,20.98-3.75,18.5l-.25-19c.49-.03,1.01-.02,1.5,0Z"/>
        <path class="cls-15" d="M268.04,185c4.13,1.24,3.3,18.81-.25,18l-.75-18c.3.06.77-.08,1,0Z"/>
      </g>
      <path class="cls-28" d="M243.04,100c-7.04-.22-13.97.08-21,.5,4.68-9.21,8.98-5.22,18.75-6,3.16,2.4,1.99,4.87,2.25,5.5Z"/>
      <g>
        <g>
          <path class="cls-28" d="M149.04,0c1.25.69,2.77.22,4,.5,2.84.65,6.95,2.52,9.5,4,.49.28,4.29,2.82,4.5,3,1.31,1.12,4.36,4.74,5,6.5-9.11-6.57-25.64-4.22-34.5,6.25-17.12,20.24-10.97,64.6,19.25,68.25,4.57.55,8.08-2.58,6.75,1-3,1.99-5.41,3.58-9,4.5-13.99,3.57-24.97-2.84-34.25-12.5-.04-.05-.57.99-1.25.25-8.29-9-11.65-27.95-10.5-39.75,1.2-12.35,8.75-29.36,19.25-36.5,9.45-6.43,18.57-4.97,21.25-5.5Z"/>
          <path class="cls-28" d="M198.54,36c.91,5.24.71,13.67,0,19-3.56,26.59-22.28,40.35-47.5,44.75,22.75.32,32.41-12.83,34.25-13.25,1-.23,6.7,1.88,8.5,2,4.8.33,8.44-2.9,12.25,2.25.49.66,2.47,5.52,2.5,6.25.06,1.33.06,2.36-.75,3.5-11.58.48-23.16.64-34.75.5-6.32-.08-17.78.51-23-.5-7.66-1.48-2.7-1.55,4.5-4.5,31.6-12.94,41.09-47.58,24-76.5-2.91-4.93-6.56-9.37-11-13-.14-.88-2.94-2.43,3.75-1,13.09,2.79,25.02,17.66,27.25,30.5Z"/>
          <path class="cls-5" d="M178.54,19.5c17.09,28.92,7.6,63.56-24,76.5v-2c3.59-.92,6-2.51,9-4.5,22.46-14.9,27.15-47.28,13-69.5l2-.5Z"/>
          <path class="cls-14" d="M201.04,36c-.93.36.48,3.8.5,4,.19,2.1.08,5.29,0,7.5-.1,2.87-.58,5.2-1,8l-2-.5c.71-5.33.91-13.76,0-19,1.58-.77,2.38,0,2.5,0Z"/>
          <path class="cls-6" d="M172.04,14c1.62,1.17,3.34,4.18,4.5,6,14.15,22.22,9.46,54.6-13,69.5,1.33-3.58-2.18-.45-6.75-1-30.22-3.65-36.37-48.01-19.25-68.25,8.86-10.47,25.39-12.82,34.5-6.25Z"/>
          <path class="cls-30" d="M178.54,19.5l-2,.5c-1.16-1.82-2.88-4.83-4.5-6-.64-1.76-3.69-5.38-5-6.5-.07-.45.57-.55.5-1,4.44,3.63,8.09,8.07,11,13Z"/>
        </g>
        <g>
          <g>
            <path class="cls-28" d="M278.54,73c.93-1.89,5.52-16.29,4.25-17l-29.25-.5c.2-7.66-.77-11.86-3-19-2.49-7.98-5.19-13.47-11.5-19.25-.18-1.27,1.24-.53,2.5-.75.75-.13,1.7.08,2.5,0,13.73-1.41,25.86-.66,33.5,12.25,7.12,12.03,8.75,32.23,1,44.25Z"/>
            <path class="cls-28" d="M278.54,73c-1.18,2.4-4.47,7.5-6.5,9-8.8,6.51-26.63,2.6-28.75,3.5-.72.31-5.17,9.47-12.75,6.75-1.7-6.55,1.88-2.37,10-7.25,9.26-5.57,12.73-19.44,13-29.5l29.25.5c1.27.71-3.32,15.11-4.25,17Z"/>
          </g>
          <g>
            <path class="cls-28" d="M236.54,18c2.96,1.53,10.4,11.85,11,15-3.33-.3-6.62-9.37-10.25-11.5-12.64-7.4-20.74,10.42-22,11-1.28.58-2.14-.53-2.25-.5,1.13-2.46,2.43-4.79,4-7,4.78-6.7,11.19-11.29,19.5-7Z"/>
            <path class="cls-16" d="M241.54,16.5c-1.26.22-2.68-.52-2.5.75,6.31,5.78,9.01,11.27,11.5,19.25l-1.5.5c-.32-1.03-.88-2.73-1.5-3.5-.03-.16.03-.34,0-.5-.6-3.15-8.04-13.47-11-15v-1c3.15-1.5,4.15-4.23,5-.5Z"/>
            <path class="cls-28" d="M247.54,33.5c.62.77,1.18,2.47,1.5,3.5,4.99,15.84,2.02,39.37-9,46-2.88,1.73-11.43,3.91-14,1.25-.2-.21-1.56-4.81-2.25-5.25-1.4-.89-14.8-.13-17.25-3.5,3.78-2.43,6.95-4.14,9.5-8,5.68,1.02,11.49.77,17-.5,17.92-4.12,19.55-21.8,8-22.5-5.85-.35-15.38,2.58-22,2.5-.09-.45-.37-1.58-.5-2,0-.34-.12-.91.25-1,1.99-.47,15.46,0,20.75-1.75.73-17.97-2.72-8.5-22-10,1.93-4,8.41-8.65,12.75-8.75,13.27-.3,17.88,29.1,17.75,18.75,0-.73-1.16-6.45-1.5-8.5-.06-.39,1.01-.2,1-.25Z"/>
            <path class="cls-14" d="M250.54,36.5c2.23,7.14,3.2,11.34,3,19-.27,10.06-3.74,23.93-13,29.5-.84-.95-2.61.91-.5-2,11.02-6.63,13.99-30.16,9-46l1.5-.5Z"/>
            <path class="cls-25" d="M247.54,33c.03.16-.03.34,0,.5,0,.05-1.06-.14-1,.25.34,2.05,1.49,7.77,1.5,8.5.13,10.35-4.48-19.05-17.75-18.75-4.34.1-10.82,4.75-12.75,8.75,19.28,1.5,22.73-7.97,22,10-5.29,1.75-18.76,1.28-20.75,1.75-.37.09-.25.66-.25,1-1.54-4.96-5.63-8.33-9-12,1.25-.29,2.3-.68,3.5-1,.11-.03.97,1.08,2.25.5,1.26-.58,9.36-18.4,22-11,3.63,2.13,6.92,11.2,10.25,11.5Z"/>
            <path class="cls-28" d="M233.04,67l2.75-7.5c-5.27,2.08-11.19.59-16.75.5.41-2.32.5-3.64.5-6,9.13,3.89,23.6,4.36,21.5-9.5,11.55.7,9.92,18.38-8,22.5Z"/>
            <path class="cls-25" d="M241.04,44.5c2.1,13.86-12.37,13.39-21.5,9.5,0-2.14-.08-4.93-.5-7,6.62.08,16.15-2.85,22-2.5Z"/>
            <path class="cls-25" d="M233.04,67c-5.51,1.27-11.32,1.52-17,.5,1.7-2.58,2.46-4.45,3-7.5,5.56.09,11.48,1.58,16.75-.5l-2.75,7.5Z"/>
          </g>
        </g>
        <g>
          <path class="cls-28" d="M215.04,44.5c4.09,9.9,2.44,23.88-9,28-1.18.42-11.1,2.27-11.5,1.75-.6-.79,3.79-4.09,6-18.75.42-2.8.9-5.13,1-8,3.16.88,10.37,1.55,12.75-1,.93-1-1.13-2.23.75-2Z"/>
          <path class="cls-9" d="M209.54,33c3.37,3.67,7.46,7.04,9,12,.13.42.41,1.55.5,2,.42,2.07.5,4.86.5,7,0,2.36-.09,3.68-.5,6-.54,3.05-1.3,4.92-3,7.5-2.55,3.86-5.72,5.57-9.5,8-.79-1.09-.47-1.82-.5-3,11.44-4.12,13.09-18.1,9-28-.86-2.09-1.01-2.31-2.5-4-3.13-3.55-3.66-3.68-8.5-4.5.61-2.63,3.59-2.55,5.5-3Z"/>
          <path class="cls-28" d="M204.04,36c4.84.82,5.37.95,8.5,4.5-3.5-.86-7.43-1.68-11-.5-.02-.2-1.43-3.64-.5-4,.96.05,2.15-.14,3,0Z"/>
          <path class="cls-25" d="M212.54,40.5c1.49,1.69,1.64,1.91,2.5,4-1.88-.23.18,1-.75,2-2.38,2.55-9.59,1.88-12.75,1,.08-2.21.19-5.4,0-7.5,3.57-1.18,7.5-.36,11,.5Z"/>
        </g>
      </g>
      <g>
        <path class="cls-5" d="M245.54,262c-.02,3.25,1.8,1.11,2,3.5-21.65-1.46-129.13,13-145.75,12-2.51-.15-43.65-6.85-49.75-8l1-3c5.96,1.25,49.6,8.97,52.25,9,1.31.02,20.44-3.03,26-3.5,38.09-3.23,76.12-7.13,114.25-10Z"/>
        <path class="cls-14" d="M120.54,100.5c-.98,1.97-.9,2.69,1,3.5-7.27.23-19.09.13-17.5,2-2.4.55.31,10.93-3,10.5-.03-1.82.38-12.1-.25-12.5-2.01-1.29-40.68-7.34-46.75-9.5.1-.55-.26-1.7.25-2,23.71-.38,47.52,5.83,66.25,8Z"/>
        <path class="cls-26" d="M222.04,100.5c7.03-.42,13.96-.72,21-.5,1.14,2.73,3.01,1.97,2,3.5-7.36-.99-46.4.47-59.5.5-1.72-3.18-12.21,1.58-12.5-3,11.59.14,23.17-.02,34.75-.5.81-1.14.81-2.17.75-3.5,4.19-.33,7.77,4.18,10.25,4.5,2.51.33,2.68-.97,3.25-1Z"/>
        <path class="cls-31" d="M150.04,100.5c5.22,1.01,16.68.42,23,.5.29,4.58,10.78-.18,12.5,3-14.66.03-29.34-.17-44,0l.5-3.5c3.55,0,6.83,1.24,8,0Z"/>
        <path class="cls-26" d="M142.04,100.5l-.5,3.5c-6.66.07-13.35-.21-20,0-1.9-.81-1.98-1.53-1-3.5,11.22,1.3,12.37,0,21.5,0Z"/>
        <g>
          <path class="cls-21" d="M76.54,167c.59-.07,1.45-.3,2-.5l2,.75c.69,15.64-20.31,22.81-22.5,5,9-9.19,11.59-4.44,18.5-5.25Z"/>
          <path class="cls-28" d="M87.54,163c1.45,8.47,2.68,28.9-2,35.75-5.63,8.23-21.76,1.48-28-3.25l2.5-1c.83.56,1.61,1.03,2.5,1.5,1.93,1.02,5.48,2.55,7.5,3,16.74,3.71,15.68-8.97,16-21,.12-4.46,1.52-9.25-.5-13.5.22-.98.78-1.83,2-1.5Z"/>
          <path class="cls-12" d="M77.54,190c-4.61,6.19-11.98,2.31-16.5-1.5l2.5-3.5c7.14,2.92,12.08-.72,16.5-6,.66,2.09-1.39,9.5-2.5,11Z"/>
          <path class="cls-1" d="M70.04,199c2.74-.53,3.91-2.1,6-3.5.15-.1.45.46,3-2,1.43-1.38,1.38-1.2,2.5-3,2.38-3.84,3.54-8.04,4-12.5h.5c-.32,12.03.74,24.71-16,21Z"/>
          <path class="cls-21" d="M85.04,174.5c-.26,3.51.52,3.32.5,3.5-.46,4.46-1.62,8.66-4,12.5l-4-.5c1.11-1.5,3.16-8.91,2.5-11,1.7-2.03,1.54-5.3,5-4.5Z"/>
          <path class="cls-12" d="M76.04,195.5c-2.09,1.4-3.26,2.97-6,3.5-2.02-.45-5.57-1.98-7.5-3,2.42-1.3,4.53,2.74,4-2,3.58,1.37,5.46,1.84,9.5,1.5Z"/>
          <path class="cls-18" d="M86.04,178h-.5c.02-.18-.76,0-.5-3.5.2-2.62.02-7.87.5-10,2.02,4.25.62,9.04.5,13.5Z"/>
        </g>
        <g>
          <path class="cls-25" d="M32.04,230.5c.14.91-2.9,9.3,2.5,17.75,7.3,11.42,16.24-.49,17-9.5l1.5,2.75c-.13.9-.26,1.63-.5,2.5-1.82,6.72-6.45,12.01-14,10.5-4.14-.83-7.67-4.77-10-8,1.45-2.27-1.23-4.44-1.5-6.75-.5-4.26.08-9.21,1.5-13.25,1.09.09,3.41,3.41,3.5,4Z"/>
          <path class="cls-14" d="M44.54,208.5c.14,1.75-.27,2.69.5,4.5.5,1.16,2.87,2.63,4.5,5-1.77-1.53-2.35-2.08-3.5.5-4.73-3.71-11.1-4.23-16-.5l-1.5-3c4.42-4.21,9.86-6.38,16-6.5Z"/>
          <path class="cls-5" d="M55.04,245.5c-2.72,8.78-8.41,12.82-17.5,10.5l1-1.5c7.55,1.51,12.18-3.78,14-10.5l2.5,1.5Z"/>
          <path class="cls-17" d="M49.54,218c3.84,5.59,6.62,9.71,7,17,.17,3.18-.55,7.42-1.5,10.5l-2.5-1.5c.24-.87.37-1.6.5-2.5,1.04-7.41-.73-18.08-7-23,1.15-2.58,1.73-2.03,3.5-.5Z"/>
          <path class="cls-25" d="M56.54,235c-.38-7.29-3.16-11.41-7-17-1.63-2.37-4-3.84-4.5-5-.48-4.23,8.56,2,9.5,3.25,1.5,1.98,5.91,18.51,2,18.75Z"/>
          <path class="cls-25" d="M32.04,230.5c-.09-.59-2.41-3.91-3.5-4,6.11-17.41,21.95-3.64,10.25,2.5-4.31,2.26-7.17-.5-6.75,1.5Z"/>
          <g>
            <path class="cls-28" d="M46.04,218.5c6.27,4.92,8.04,15.59,7,23l-1.5-2.75c-.76,9.01-9.7,20.92-17,9.5-5.4-8.45-2.36-16.84-2.5-17.75-.42-2,2.44.76,6.75-1.5,11.7-6.14-4.14-19.91-10.25-2.5-1.42,4.04-2,8.99-1.5,13.25.27,2.31,2.95,4.48,1.5,6.75-8.06-11.2-3.93-24.36,1.5-28.5,4.9-3.73,11.27-3.21,16,.5Z"/>
            <path class="cls-25" d="M36.79,234c11.26.75-1.63,13.22-1.75,1.75l1.75-1.75Z"/>
          </g>
        </g>
        <g>
          <path class="cls-25" d="M75.04,112c2.99,1.44,6.8,5.12,8.5,8l3,10.75c-1.5,3.18-13.54,1.23-17,1.25-.7-5.54-2.18-11.16-5-16,3.28.35,6.59.21,9.75,1.5,2.5-1.7-10.21-10.77.75-5.5Z"/>
          <path class="cls-22" d="M77.04,110.5c-1.16,1.44-2.99-1.55-2,1.5-10.96-5.27,1.75,3.8-.75,5.5-3.16-1.29-6.47-1.15-9.75-1.5-1.63-.18-3.28-.9-5-.5-2.68-2.74-6.8-3.23-10.5-4-4.88-2.97,3.64-.63,6-2,6.89.37,15.93-1.05,22,1Z"/>
          <path class="cls-31" d="M69.54,132.5c1.27,11.17.35,27.51-9.5,35l-1.5-1c2.07-1.61,3.95-5.58,5-8,.61-1.4,1.08-2.53,1.5-4,2.05-7.25,2.16-11.59,1.5-19-.23-2.54.02-2.85,0-3h3Z"/>
          <path class="cls-17" d="M64.54,116c2.82,4.84,4.3,10.46,5,16,.02.16-.02.34,0,.5h-3c-.67-3.96-4.26-14.2-7-17,1.72-.4,3.37.32,5,.5Z"/>
          <path class="cls-14" d="M50.54,165c-2.19,3.56-4.13,5.44,3.25,4,.26-.05,4.4-2.23,4.75-2.5l1.5,1c-5.02,3.81-8.21,3.23-8.5,3.75-.21.38.54,3.73.5,8.75h-1.5c-.04-1.36.25-8.39,0-8.75-.53-.75-4.95.06-6-.25-.8-.23-.23-1.29-1.5-1,2.25-.85,5.21-4.44,6.5-6.5l1,1.5Z"/>
          <path class="cls-28" d="M49.04,111.5c3.7.77,7.82,1.26,10.5,4,2.74,2.8,6.33,13.04,7,17,.02.15-.23.46,0,3-1.84.37-.29-2.46-1.75-3-.49-.18-5.8,1.31-7.75,1-.58-5.21-.84-7.18-3-12-2.74-6.12-4.71-8.26-11-11,2.04.17,4.01.58,6,1Z"/>
          <path class="cls-7" d="M43.04,110.5c6.29,2.74,8.26,4.88,11,11-1.98-1.39-1.8-2.45-3.5,0-2.9-4.44-7.86-6.7-13-7.5-1.81-.28-2.92-1.51-3.5,1-.51-.57-3.42-3.15-4-3.5,3.56-1.79,8.83-1.34,13-1Z"/>
          <g>
            <path class="cls-17" d="M37.54,114c-.31,1.43,1.37,2.49,2.5,4.5,4.81,8.55,5.3,17.47,4.5,27l-2.5,1c.95-10.43-.68-23.34-8-31.5.58-2.51,1.69-1.28,3.5-1Z"/>
            <path class="cls-5" d="M37.04,167.5l-1.5-.5c3.91-5.16,5.92-14.16,6.5-20.5l2.5-1c-.94,11.25-1.79,12.89-7.5,22Z"/>
            <g>
              <path class="cls-28" d="M30.04,111.5c.58.35,3.49,2.93,4,3.5,7.32,8.16,8.95,21.07,8,31.5-.58,6.34-2.59,15.34-6.5,20.5C22.82,183.78,1.27,173.47.04,143.75c-.47-11.42,3.03-17.91,3.5-22.75,2.14-2.24,3.25-5.33,5.5-7.5,6.13-5.93,13.8-6.36,21-2Z"/>
              <path class="cls-13" d="M24.04,135.5c2.37,4.71,9.06-4.47,3-3,6.48-10.78,11.5,12.78,1.75,21.5-5.91,2.4-10.41-10.13-4.75-18.5Z"/>
              <path class="cls-32" d="M24.04,135.5c.8-1.19.8-2.32,3-3,6.06-1.47-.63,7.71-3,3Z"/>
            </g>
          </g>
          <path class="cls-28" d="M51.04,123c2.89,5.49,3.08,8.56,3.5,14.5.62,8.87-.16,18.27-5,26-1.29,2.06-4.25,5.65-6.5,6.5-.65.25-7.4,1.18-7.75,1-.5-.26,1.52-3.14,1.75-3.5,5.71-9.11,6.56-10.75,7.5-22,.8-9.53.31-18.45-4.5-27l11,4.5Z"/>
          <path class="cls-28" d="M66.54,135.5c.66,7.41.55,11.75-1.5,19-1.63-1.49-6.26-1.79-9-2,1.21-5.62,1.67-9.19,1.5-15-.04-1.47-.35-2.62-.5-4,1.95.31,7.26-1.18,7.75-1,1.46.54-.09,3.37,1.75,3Z"/>
          <path class="cls-28" d="M63.54,158.5c-1.05,2.42-2.93,6.39-5,8-.35.27-4.49,2.45-4.75,2.5-7.38,1.44-5.44-.44-3.25-4,1.52-2.47,3.53-4.67,4.5-7.5l8.5,1Z"/>
          <path class="cls-28" d="M65.04,154.5c-.42,1.47-.89,2.6-1.5,4l-8.5-1c.39-1.14.69-3.58,1-5,2.74.21,7.37.51,9,2Z"/>
          <path class="cls-5" d="M57.54,137.5c.17,5.81-.29,9.38-1.5,15-.31,1.42-.61,3.86-1,5-.97,2.83-2.98,5.03-4.5,7.5l-1-1.5c4.84-7.73,5.62-17.13,5-26h3Z"/>
          <path class="cls-14" d="M54.04,121.5c2.16,4.82,2.42,6.79,3,12,.15,1.38.46,2.53.5,4h-3c-.42-5.94-.61-9.01-3.5-14.5-.04-.07.05-.66-.5-1.5,1.7-2.45,1.52-1.39,3.5,0Z"/>
          <path class="cls-11" d="M50.54,121.5c.55.84.46,1.43.5,1.5l-11-4.5c-1.13-2.01-2.81-3.07-2.5-4.5,5.14.8,10.1,3.06,13,7.5Z"/>
        </g>
        <g>
          <g>
            <path class="cls-7" d="M250.54,129.5c-.53,2.95,2.13,4.53-2.5,4-.41-3.6-2.16-7.16-6.25-8-2.86-.59-37.44-.5-40,.5-3.18,1.24-7.16,5.81-7.75,9.25-1.33,7.77,1.36,62.08,0,71-1.81,11.89-10.6,11.27-17.5,11.75,2.21-3.21-.77-.77-.5-3.5,5.61-.72,13.56-1.23,15-8.75.92-4.79-1.99-57.5-.5-69,.99-7.59,6.19-13.29,13.75-14.75,3.94-.76,32.54-1.57,36-1,4.05.67,8.6,4.72,10.25,8.5Z"/>
            <path class="cls-7" d="M248.04,228.5c.83.21,3.91,2.98,2.5,4.5-1.19-.17-1.59-1.03-5.75-1-7.29.05-32.39,2.21-43,3-34.02,2.54-68.11,5.91-102,9.5-.49-.33-.2-2.31-.25-3,34.16-3.51,68.48-7.41,102.75-10,5.93-.45,43.53-3.56,45.75-3Z"/>
            <path class="cls-24" d="M250.54,233c1.41-1.52-1.67-4.29-2.5-4.5-1.25-21.4,1.66-80.32,0-95,4.63.53,1.97-1.05,2.5-4,.35.81,1.38,2.48,1.5,3.25,1.42,9.03-1.07,81.97,0,100.5-1.48.81-1.42-.24-1.5-.25Z"/>
            <path class="cls-14" d="M103.04,179.5c-.17,13.5-1.06,26.99-.25,40.5,22.46-3.09,52.25-2.81,73.25-5.5-.27,2.73,2.71.29.5,3.5-25.63,1.77-51.48,1.5-77,5,.02-11,.37-22,.5-33,4.21,1.34.32-18.59,3-10.5Z"/>
            <g>
              <path class="cls-17" d="M248.04,133.5c1.66,14.68-1.25,73.6,0,95-2.22-.56-39.82,2.55-45.75,3-34.27,2.59-68.59,6.49-102.75,10-.38-5.09-.01-12.91,0-18.5,25.52-3.5,51.37-3.23,77-5,6.9-.48,15.69.14,17.5-11.75,1.36-8.92-1.33-63.23,0-71,.59-3.44,4.57-8.01,7.75-9.25,2.56-1,37.14-1.09,40-.5,4.09.84,5.84,4.4,6.25,8Z"/>
              <g>
                <path class="cls-31" d="M209.04,187.5c-1.52,3.57-2.93,9.99,1.5,4-2.54,7.58,3.11,19.41,11.5,16,5.23-2.13,5.67-8.2,5.5-13h1c.13.68,5.47,4.29,1,12.75-7,13.24-31.6.8-22-20.75,1.6-1.09.44.5,1.5,1Z"/>
                <path class="cls-7" d="M221.04,180c9.94,2.82,6.2,7.95,7.5,14.5h-1c-.01-.32.36-.07,0-2-.53-2.81-3.71-8.74-7-9l-.5-3.5h1Z"/>
                <path class="cls-19" d="M221.04,180h-1c-5.03.17-9.03,2.87-11,7.5-1.06-.5.1-2.09-1.5-1,3.19-7.16,6.3-8.54,13.5-6.5Z"/>
                <path class="cls-17" d="M220.04,180l.5,3.5c-6.02.91-6.94,3.86-10,8-4.43,5.99-3.02-.43-1.5-4,1.97-4.63,5.97-7.33,11-7.5Z"/>
                <g>
                  <path class="cls-28" d="M227.54,192.5c-4.59-.14.34,10.16-8.5,14.25l3,.75c-8.39,3.41-14.04-8.42-11.5-16,3.06-4.14,3.98-7.09,10-8,3.29.26,6.47,6.19,7,9Z"/>
                  <path class="cls-25" d="M227.54,192.5c.36,1.93-.01,1.68,0,2,.17,4.8-.27,10.87-5.5,13l-3-.75c8.84-4.09,3.91-14.39,8.5-14.25Z"/>
                </g>
              </g>
            </g>
          </g>
          <g>
            <path class="cls-28" d="M101.04,116.5c.43,24.45-.71,49.04-1,73.5-.13,11-.48,22-.5,33-.01,5.59-.38,13.41,0,18.5.05.69-.24,2.67.25,3,33.89-3.59,67.98-6.96,102-9.5,10.61-.79,35.71-2.95,43-3,4.16-.03,4.56.83,5.75,1,.08.01.02,1.06,1.5.25-1.07-18.53,1.42-91.47,0-100.5-.12-.77-1.15-2.44-1.5-3.25-1.65-3.78-6.2-7.83-10.25-8.5-3.46-.57-32.06.24-36,1-7.56,1.46-12.76,7.16-13.75,14.75-1.49,11.5,1.42,64.21.5,69-1.44,7.52-9.39,8.03-15,8.75-21,2.69-50.79,2.41-73.25,5.5-.81-13.51.08-27,.25-40.5.31-24.5.62-49,1-73.5-1.59-1.87,10.23-1.77,17.5-2,6.65-.21,13.34.07,20,0,14.66-.17,29.34.03,44,0,13.1-.03,52.14-1.49,59.5-.5,8.51,1.14,14.96,10.76,16,18.75.58,4.47.06,51.53,0,63.25-.02,3.13-1.25,23.69-.5,24.75.61.87,5.79-.61,6.5,1,.45,1.01.26,20.93,0,22-.38,1.52-4.85,4.88-5.5,7.5-.49,1.96,1.38,10.98-7,17.25-.12.09-2.25,1.37-2.5,1.5-1.16.62-4.92,1.48-6.5,2.5-38.13,2.87-76.16,6.77-114.25,10-5.56.47-24.69,3.52-26,3.5-2.65-.03-46.29-7.75-52.25-9-9.44-1.98-10.98-2.36-20-5.5-1.67-.58-2.92-1.79-3.5-2-3.49-3.76-5.44-8.84-5.75-14,3.37,5.15,7.63,9.44,13.75,11,9.09,2.32,14.78-1.72,17.5-10.5.95-3.08,1.67-7.32,1.5-10.5,3.91-.24-.5-16.77-2-18.75-.94-1.25-9.98-7.48-9.5-3.25-.77-1.81-.36-2.75-.5-4.5-.85-10.46.63-26.21,0-37.5,1.05.31,5.47-.5,6,.25.25.36-.04,7.39,0,8.75.08,2.99-.31,10.19.5,12.25,1.99,5.03,28.87,18.86,36,8,3.62-5.51,3.2-23.19,2.5-30-.4-3.88-2.45-11.43-2-7.25-1.22-.33-1.78.52-2,1.5-.48,2.13-.3,7.38-.5,10-3.46-.8-3.3,2.47-5,4.5-4.42,5.28-9.36,8.92-16.5,6-3.84-1.57-9.4-8.81-7.5-13.25h-1.5c-1.94,7.57.96,12.08,6.5,16.75,4.52,3.81,11.89,7.69,16.5,1.5l1.5,3.5c-2.55,2.46-2.85,1.9-3,2-4.04.34-5.92-.13-9.5-1.5-3.22-1.23-10.21-6.4-12.25-9.5-2.72,3.83,2.67,7.91,5.75,10l-2.5,1c-7.66-5.8-5.57-6.74-5.5-15.5.04-5.02-.71-8.37-.5-8.75.29-.52,3.48.06,8.5-3.75,9.85-7.49,10.77-23.83,9.5-35-.02-.16.02-.34,0-.5,3.46-.02,15.5,1.93,17-1.25l-3-10.75c3.66,6.21,4.18,13.49,4,20.5-.29,11.11-2.95,18.67-11,26.5-6.91.81-9.5-3.94-18.5,5.25,2.19,17.81,23.19,10.64,22.5-5l-2-.75c7.76-2.76,11.15-17.75,11.5-25,.5-10.27-1.49-27.11-13-31-6.07-2.05-15.11-.63-22-1-2.11,1.43-1.15-14.19-1-15,6.07,2.16,44.74,8.21,46.75,9.5.63.4.22,10.68.25,12.5Z"/>
            <g>
              <g>
                <path class="cls-19" d="M261.29,216.5l2.75.25c2.42,17.66-4.67,15.15-2.75-.25Z"/>
                <path class="cls-7" d="M261.29,231h2.5c4.15,4.28-1.4,3.87-2.5,0Z"/>
              </g>
              <g>
                <path class="cls-4" d="M235.29,236c5.92-1.67-9.32,11.24-11.5,9.5-2.22-7.49-6.14.75-7.5,1-2.81.52-2.53-7.25-12,2-.82-12.76-6.51,3.69-10.25-.75l3.5-3.5c-9.48-1.3-8.13,5.78-13.5,5,5.31-8.98,8.17-6.56,8.75-6.75.43-.14,1.64-1.93,2-2,1.92-.39,2.62,2.84,6.5,1.5.75-.26.76-1.78,1.5-2,1.73-.52,5.67,6.06,12.5-3-4.72,14.47,19.35-8.6,8.25,3.75l2.25,1.25c3.21-3.87,5.8-.84,9.5-6Z"/>
                <path class="cls-28" d="M80.04,252.5c-1.86,1.32-3.81,2.44-5.5,4-1.34-.37-1.16-2.57-3.75,1l-1-4c-2.24,5.43-4.49,2.81-11,1.5-1.23-.4,2.54-8.8,3-9,2.32-1,22.37-1.13,18.25,6.5Z"/>
                <path class="cls-4" d="M186.79,240.5l1.25,1.25c-4.16,4.78-5.46,2.55-5.75,2.75-2.12,1.44-9.81,11.32-7,2.5-6.34-.79-5.87,1.16-10,5-3.54.79-.3-2.85,1.25-4.25-9.02-3.06-9.14,8.04-11.5,3.5l2.5-3c1.68-1.68-6.4.09-6.75.25-.48.22-4.03,9.34-6.25,2.25,2.26,1.42,4.01-3.67,5.25-4.25,1.03-.48,3.93-.3,5-.5.57-.11.81-1.48,1-1.5.59-.06,11.39,3.28,9-1.5,8,4.41,8.21-1.04,10.5-1.5,6.2-1.23-4.82,4.45,2,4.5,4.93-6.35,5.52-1.72,9.5-5.5Z"/>
                <path class="cls-4" d="M127.29,246l1.25.75c-4.72,6.61,3.27,1.83,3.75,1.75,3.94-.64,2.32,2.89,9.5-1,2.1.59-3.97,7.15-5.5,6.5-3.87-10.81-8.41,8.69-9.5-2.5-6.7-1.58-5.29,5.57-10.25,4.25,3.89-3.88,1.42-5.06-2.75-3.75-1.58.5-4,7.24-7.25,4.25,7.25-8.44,7.67-5.81,8.75-6.25.83-.34,1.38-1.96,1.5-2,1.68-.55,4.72,5.31,10.5-2Z"/>
                <path class="cls-8" d="M106.29,248.5c1.87-.16,4.87,2.49,1,3.5-1.31.34.03-4.02-8.75,5.75,6.63,2.29,1.93,1.96-4,1.5,8.38-16.2-5.84-.83-8.75-.25-7.78,1.55,12.29-12.2,13.75-8.75-5.13,15.28,3.03-1.43,6.75-1.75Z"/>
                <g>
                  <path class="cls-16" d="M77.04,110.5c11.51,3.89,13.5,20.73,13,31l-.75-3-1.75,2c.18-7.01-.34-14.29-4-20.5-1.7-2.88-5.51-6.56-8.5-8-.99-3.05.84-.06,2-1.5Z"/>
                  <path class="cls-26" d="M90.04,141.5c-.35,7.25-3.74,22.24-11.5,25-.55.2-1.41.43-2,.5,8.05-7.83,10.71-15.39,11-26.5l1.75-2,.75,3Z"/>
                </g>
                <path class="cls-4" d="M74.54,256.5c1.69-1.56,3.64-2.68,5.5-4,16.74-11.82-.48,4.78-4.25,5-1.86.11-1.17-.98-1.25-1Z"/>
                <g>
                  <path class="cls-5" d="M50.54,180h1.5c-.07,8.76-2.16,9.7,5.5,15.5,6.24,4.73,22.37,11.48,28,3.25,4.68-6.85,3.45-27.28,2-35.75-.45-4.18,1.6,3.37,2,7.25.7,6.81,1.12,24.49-2.5,30-7.13,10.86-34.01-2.97-36-8-.81-2.06-.42-9.26-.5-12.25Z"/>
                  <path class="cls-27" d="M66.54,194c.53,4.74-1.58.7-4,2-.89-.47-1.67-.94-2.5-1.5-3.08-2.09-8.47-6.17-5.75-10,2.04,3.1,9.03,8.27,12.25,9.5Z"/>
                  <path class="cls-18" d="M63.54,185l-2.5,3.5c-5.54-4.67-8.44-9.18-6.5-16.75h1.5c-1.9,4.44,3.66,11.68,7.5,13.25Z"/>
                  <path class="cls-3" d="M81.54,190.5c-1.12,1.8-1.07,1.62-2.5,3l-1.5-3.5,4,.5Z"/>
                </g>
                <path class="cls-2" d="M146.79,244.5c2.56-.72.65,3.96-1.25,1.75l1.25-1.75Z"/>
                <path class="cls-5" d="M137.79,245c2.01-.44,1.09,1.41-1,1.5l1-1.5Z"/>
                <g>
                  <path class="cls-25" d="M175.29,189.5c6.87.14,14.9-.12,12.75,9.75-1.59,7.3-31.82,4.23-44.75,6.75-9.83-9.85,38.22-4.4,40.75-7.75.05-2.25,1.06-2.07-1.25-3.25-13.5,2.46-50.6-5.52-47.25,14.25-4.42,2.93-6.57-10.31-6-12,11.85-6.93,32.03-8.02,45.75-7.75Z"/>
                  <path class="cls-23" d="M104.04,106c-.38,24.5-.69,49-1,73.5-2.68-8.09,1.21,11.84-3,10.5.29-24.46,1.43-49.05,1-73.5,3.31.43.6-9.95,3-10.5Z"/>
                  <path class="cls-28" d="M112.29,164c-.06,9.49,2.82,15.32-5,21.5-1.21-.92,4.91-18.48,5-21.5Z"/>
                  <path class="cls-8" d="M243.29,235l1.25,1.25c-13.08,13.85-17.09,10.59-1.25-1.25Z"/>
                  <path class="cls-2" d="M246.79,237.5c5.6-1.12-4.95,10.51-4.75,5.75l4.75-5.75Z"/>
                  <g>
                    <path class="cls-1" d="M129.04,129.5c-1.46,1-2.05,2.59-3.5,3.5-13.57,8.48-22.69-7.47-15.5-17.75,6.09-8.69,23.55-7.13,19,14.25Z"/>
                    <path class="cls-10" d="M125.54,123c-.35-8.02-6.01-10.47-13-7.5-2.7.03,2.76-4.49,8.25-3,8.23,2.23,8.42,19.75-1,20.5-8.47.67-11.22-12.69-6.75-10.25.36,10.62,13.02,12.43,12.5.25Z"/>
                    <path class="cls-20" d="M125.54,123c-1.28,1.16-1-1.53-5.75-3.5-2.83-1.17-9.4-.27-7.25-4,6.99-2.97,12.65-.52,13,7.5Z"/>
                  </g>
                  <g>
                    <path class="cls-20" d="M114.29,181.5c20.92-4.25,16.34,27.85-1.5,22-9.14-2.99-8.1-20.05,1.5-22Z"/>
                    <path class="cls-1" d="M112.79,185.5c.93,7.89.76,2.3,7,3,4.69,3.9-.48,12.46-6,10-2.76-1.23-5.82-11.82-1-13Z"/>
                  </g>
                  <g>
                    <path class="cls-16" d="M165.04,170c-.73.07-.34-.91-.75-1-.07-.02-.41.73-1.25.5,17.05-33.31-20.5-62.89-37.5-31-1.03-.66,1.04-2.45-2-1.5.66-1.29,1.9-2.42,2-4,1.45-.91,2.04-2.5,3.5-3.5,2.88-1.98,6.15-5.4,9.75-6.5,23.78-7.26,37.33,24.1,26.25,47Z"/>
                    <path class="cls-14" d="M125.54,138.5c-17.57,32.96,20.69,63.85,37.5,31,.84.23,1.18-.52,1.25-.5.41.09.02,1.07.75,1-17.31,35.78-60.34,3.92-41.5-33,3.04-.95.97.84,2,1.5Z"/>
                    <g>
                      <path class="cls-28" d="M163.04,169.5c-16.81,32.85-55.07,1.96-37.5-31,17-31.89,54.55-2.31,37.5,31Z"/>
                      <path class="cls-1" d="M140.54,133c5.01,2.98,8.86,4.55,12.5,9.5,6.88,13.44-3.08,31.82-19,28.5-1.46-.88-2.83-2.02-4.5-2.5-4.35-10.4-1.14-31.71,11-35.5Z"/>
                      <path class="cls-29" d="M129.54,168.5c1.67.48,3.04,1.62,4.5,2.5.04.03-1.29.5-.25,1,10.27,4.91,22.9-5.85,23.25-17.5,4.38,4.86,2.67,1.38,4-3,1.14,25.2-24.28,34.25-31.5,17Z"/>
                      <path class="cls-20" d="M161.04,151.5c-1.33,4.38.38,7.86-4,3,.15-4.81-1.3-8.33-4-12-3.64-4.95-7.49-6.52-12.5-9.5,12.41-3.87,19.97,6.71,20.5,18.5Z"/>
                      <path class="cls-10" d="M157.04,154.5c-.35,11.65-12.98,22.41-23.25,17.5-1.04-.5.29-.97.25-1,15.92,3.32,25.88-15.06,19-28.5,2.7,3.67,4.15,7.19,4,12Z"/>
                    </g>
                  </g>
                </g>
              </g>
            </g>
          </g>
        </g>
      </g>
    </g>
  </g>
</svg>